<mxfile host="app.diagrams.net" modified="2024-05-20T07:06:03.471Z" agent="Mozilla/5.0 (Windows NT 10.0; Win64; x64) AppleWebKit/537.36 (KHTML, like Gecko) Chrome/124.0.0.0 Safari/537.36" version="24.4.4" etag="goeCHwBbwKw8xvvKLpGK" type="github">
  <diagram name="Trang-1" id="5VJ1VpjuSmhpOJs_0BTQ">
    <mxGraphModel>
      <root>
        <mxCell id="0" />
        <mxCell id="1" parent="0" />
      </root>
    </mxGraphModel>
  </diagram>
</mxfile>
